<?xml version="1.0" encoding="UTF-8"?>
<svg version="1.1" xmlns="http://www.w3.org/2000/svg" width="87" height="87">
<path d="M0 0 C11.42571931 6.80622992 20.87853544 15.83481696 24.25 29.0625 C24.5836735 32.8155854 24.62015287 36.54628022 24.625 40.3125 C24.64949219 41.29863281 24.67398438 42.28476562 24.69921875 43.30078125 C24.741513 54.00122746 21.17685356 62.02869164 14.25 70.0625 C13.74855469 70.66964844 13.24710937 71.27679688 12.73046875 71.90234375 C7.25130315 77.9947493 -1.70171241 83.5466685 -10.01147461 84.25537109 C-25.32729035 84.72261887 -36.86273259 84.6355553 -49 74.25 C-57.98326817 65.74244498 -63.02717983 56.02046297 -63.48144531 43.58129883 C-63.55343922 32.35309129 -61.70015018 23.1969831 -54.75 14.0625 C-54.26917969 13.42570312 -53.78835937 12.78890625 -53.29296875 12.1328125 C-40.93063165 -3.21154034 -17.90043348 -8.4781174 0 0 Z " fill="#FC0B06" transform="translate(62.75,2.9375)"/>
<path d="M0 0 C3.81521197 0.19304367 7.62572717 0.43605205 11.4375 0.6875 C12.50677734 0.74099609 13.57605469 0.79449219 14.67773438 0.84960938 C25.5345118 1.61323592 32.12010679 5.790736 40 13 C39.00146061 21.4875848 32.30875709 27.78761012 26 33 C16.06310797 39.75819221 5.61185823 40.3877975 -6 39 C-16.61482008 36.87951608 -25.96409156 29.96178948 -32 21 C-33.375 17.5625 -33.375 17.5625 -34 15 C-32.01490123 13.31266604 -30.01389882 11.6524298 -28 10 C-27.39671875 9.484375 -26.7934375 8.96875 -26.171875 8.4375 C-21.26333962 4.44682083 -16.30090529 1.99605785 -10 1 C-9.01 1.33 -8.02 1.66 -7 2 C-8.98 2.66 -10.96 3.32 -13 4 C-13 4.66 -13 5.32 -13 6 C-12.01 5.67 -11.02 5.34 -10 5 C-7.66700175 4.96045766 -5.33291811 4.95598268 -3 5 C-3 4.34 -3 3.68 -3 3 C0.3 3.33 3.6 3.66 7 4 C4.69 3.34 2.38 2.68 0 2 C0 1.34 0 0.68 0 0 Z " fill="#16763C" transform="translate(41,45)"/>
<path d="M0 0 C4.64616722 0.06649255 8.63321026 1.61386438 12.93359375 3.25 C13.71283203 3.53617188 14.49207031 3.82234375 15.29492188 4.1171875 C17.19903692 4.81808874 19.09811325 5.53265304 20.99609375 6.25 C20.66609375 7.57 20.33609375 8.89 19.99609375 10.25 C20.61484375 10.04375 21.23359375 9.8375 21.87109375 9.625 C22.92296875 9.439375 22.92296875 9.439375 23.99609375 9.25 C24.65609375 9.91 25.31609375 10.57 25.99609375 11.25 C25.62109375 13.875 25.62109375 13.875 24.99609375 16.25 C24.87234375 15.610625 24.74859375 14.97125 24.62109375 14.3125 C24.41484375 13.631875 24.20859375 12.95125 23.99609375 12.25 C23.33609375 11.92 22.67609375 11.59 21.99609375 11.25 C22.49109375 12.735 22.49109375 12.735 22.99609375 14.25 C22.66609375 15.24 22.33609375 16.23 21.99609375 17.25 C22.65609375 17.25 23.31609375 17.25 23.99609375 17.25 C23.99609375 17.91 23.99609375 18.57 23.99609375 19.25 C17.39609375 19.25 10.79609375 19.25 3.99609375 19.25 C3.66609375 21.89 3.33609375 24.53 2.99609375 27.25 C3.90359375 27.188125 4.81109375 27.12625 5.74609375 27.0625 C9.28592017 27.26672076 10.4454053 27.89551835 12.99609375 30.25 C11.57986159 30.30447047 10.16301184 30.34300508 8.74609375 30.375 C7.56273438 30.40980469 7.56273438 30.40980469 6.35546875 30.4453125 C3.78877434 30.2328378 2.20448705 29.53654105 -0.00390625 28.25 C-0.00390625 28.91 -0.00390625 29.57 -0.00390625 30.25 C-3.30390625 30.58 -6.60390625 30.91 -10.00390625 31.25 C-10.00390625 30.59 -10.00390625 29.93 -10.00390625 29.25 C-8.35390625 28.59 -6.70390625 27.93 -5.00390625 27.25 C-13.10008856 28.78827464 -18.81846991 30.77881728 -25.00390625 36.25 C-25.99390625 37.03375 -26.98390625 37.8175 -28.00390625 38.625 C-28.66390625 39.16125 -29.32390625 39.6975 -30.00390625 40.25 C-28.51119139 47.52698492 -23.33103882 52.80525828 -17.5 57.08984375 C-7.11107537 63.57697379 3.97770692 64.8903307 15.99609375 63.25 C26.64312773 60.45506066 35.27179491 53.05552466 41.12109375 43.9375 C42.06384548 41.04190541 42.2707601 39.98142789 40.99609375 37.25 C40.00877633 35.90724831 39.01014632 34.57267727 37.99609375 33.25 C37.99609375 32.59 37.99609375 31.93 37.99609375 31.25 C39.45345462 31.05508548 40.91203968 30.86930642 42.37109375 30.6875 C43.18320313 30.58308594 43.9953125 30.47867188 44.83203125 30.37109375 C46.99609375 30.25 46.99609375 30.25 48.99609375 31.25 C48.578786 42.30865548 42.6282088 50.55268475 34.796875 58.015625 C22.37221203 67.92762949 9.22701261 68.39368369 -6.00390625 67.25 C-15.94783456 65.32104295 -25.50191489 57.89109544 -31.17285156 49.52563477 C-36.18585255 41.07911866 -37.2659987 32.39432188 -37.31640625 22.75 C-37.32188477 21.97229248 -37.32736328 21.19458496 -37.33300781 20.39331055 C-37.28441021 16.55451866 -37.17345201 13.49999683 -35.00390625 10.25 C-34.67390625 11.24 -34.34390625 12.23 -34.00390625 13.25 C-30.70390625 13.58 -27.40390625 13.91 -24.00390625 14.25 C-23.92140625 13.486875 -23.83890625 12.72375 -23.75390625 11.9375 C-22.83031632 8.62796943 -21.93116603 7.9575682 -19.00390625 6.25 C-17.3399858 5.57650839 -15.67358597 4.9090841 -14.00390625 4.25 C-13.34390625 3.59 -12.68390625 2.93 -12.00390625 2.25 C-8.37890625 2.125 -8.37890625 2.125 -5.00390625 2.25 C-5.00390625 2.58 -5.00390625 2.91 -5.00390625 3.25 C-6.98390625 3.25 -8.96390625 3.25 -11.00390625 3.25 C-11.33390625 4.24 -11.66390625 5.23 -12.00390625 6.25 C-12.66390625 6.25 -13.32390625 6.25 -14.00390625 6.25 C-13.67390625 7.24 -13.34390625 8.23 -13.00390625 9.25 C-12.34390625 8.92 -11.68390625 8.59 -11.00390625 8.25 C-11.00390625 9.24 -11.00390625 10.23 -11.00390625 11.25 C-12.32390625 11.25 -13.64390625 11.25 -15.00390625 11.25 C-15.00390625 10.26 -15.00390625 9.27 -15.00390625 8.25 C-16.65390625 8.58 -18.30390625 8.91 -20.00390625 9.25 C-20.00390625 10.24 -20.00390625 11.23 -20.00390625 12.25 C-20.99390625 12.58 -21.98390625 12.91 -23.00390625 13.25 C-18.71390625 13.25 -14.42390625 13.25 -10.00390625 13.25 C-10.00390625 12.26 -10.00390625 11.27 -10.00390625 10.25 C-9.34390625 10.25 -8.68390625 10.25 -8.00390625 10.25 C-7.67390625 10.58 -7.34390625 10.91 -7.00390625 11.25 C-6.67390625 10.92 -6.34390625 10.59 -6.00390625 10.25 C-7.32390625 9.59 -8.64390625 8.93 -10.00390625 8.25 C-10.00390625 7.59 -10.00390625 6.93 -10.00390625 6.25 C-9.01390625 6.25 -8.02390625 6.25 -7.00390625 6.25 C-7.66390625 5.59 -8.32390625 4.93 -9.00390625 4.25 C-4.25390625 5.125 -4.25390625 5.125 -2.00390625 6.25 C-2.66390625 4.6 -3.32390625 2.95 -4.00390625 1.25 C-3.00390625 0.25 -3.00390625 0.25 0 0 Z " fill="#F40C05" transform="translate(38.00390625,19.75)"/>
<path d="M0 0 C0.33 0.66 0.66 1.32 1 2 C3.89397609 2.61622519 6.7930089 2.95929461 9.7265625 3.33984375 C13 4 13 4 16.39453125 5.50390625 C20.99458485 7.41270422 25.21183321 7.76266918 30.12695312 8.171875 C36.18573724 8.7771714 40.25644367 10.98556723 45.4375 14 C48.85109799 15.98110597 52.34746793 17.50917058 56 19 C49.79552455 25.61433829 42.9792436 28.21488913 33.99584961 28.54760742 C20.01270841 28.63104395 10.24175291 25.13563592 0.1796875 15.203125 C-3.0161047 11.71399922 -4.85764552 8.68365335 -6 4 C-2.25 0 -2.25 0 0 0 Z " fill="#17773C" transform="translate(13,56)"/>
<path d="M0 0 C3.40212299 1.61382757 6.10324519 3.58603766 9 6 C8.505 4.02 8.505 4.02 8 2 C13.57068355 6.45654684 16.28658619 12.13206632 18 19 C18.56362924 25.32545729 18.29813818 31.66622006 18 38 C17.01 38.33 16.02 38.66 15 39 C15 38.34 15 37.68 15 37 C12.36 37.33 9.72 37.66 7 38 C7.66 39.32 8.32 40.64 9 42 C6.98707526 41.04650933 5.14087109 40.10365986 3.34375 38.78125 C-4.12438528 33.59152888 -13.06332724 33.75843358 -21.8527832 33.21777344 C-23.98309565 33.00171446 -25.93923629 32.57150912 -28 32 C-28.04254356 30.00045254 -28.04080783 27.99958364 -28 26 C-27 25 -27 25 -25.05053711 24.97827148 C-24.2178833 25.02540283 -23.38522949 25.07253418 -22.52734375 25.12109375 C-21.17866211 25.19360352 -21.17866211 25.19360352 -19.80273438 25.26757812 C-18.85720703 25.32365234 -17.91167969 25.37972656 -16.9375 25.4375 C-15.98810547 25.48970703 -15.03871094 25.54191406 -14.06054688 25.59570312 C-11.70673048 25.72581358 -9.35329301 25.86079112 -7 26 C-7 25.34 -7 24.68 -7 24 C-7.66 24 -8.32 24 -9 24 C-9 22.02 -9 20.04 -9 18 C-8.01 18.33 -7.02 18.66 -6 19 C-3.88496209 15.30344725 -2.91946761 11.34276566 -1.875 7.25 C-1.69324219 6.55261719 -1.51148437 5.85523438 -1.32421875 5.13671875 C-0.87883548 3.42550935 -0.43887484 1.71289017 0 0 Z " fill="#FA1409" transform="translate(69,13)"/>
<path d="M0 0 C4.64616722 0.06649255 8.63321026 1.61386438 12.93359375 3.25 C13.71283203 3.53617188 14.49207031 3.82234375 15.29492188 4.1171875 C17.19903692 4.81808874 19.09811325 5.53265304 20.99609375 6.25 C20.66609375 7.57 20.33609375 8.89 19.99609375 10.25 C20.61484375 10.04375 21.23359375 9.8375 21.87109375 9.625 C22.92296875 9.439375 22.92296875 9.439375 23.99609375 9.25 C24.65609375 9.91 25.31609375 10.57 25.99609375 11.25 C25.62109375 13.875 25.62109375 13.875 24.99609375 16.25 C24.87234375 15.610625 24.74859375 14.97125 24.62109375 14.3125 C24.41484375 13.631875 24.20859375 12.95125 23.99609375 12.25 C23.33609375 11.92 22.67609375 11.59 21.99609375 11.25 C22.49109375 12.735 22.49109375 12.735 22.99609375 14.25 C22.66609375 15.24 22.33609375 16.23 21.99609375 17.25 C22.65609375 17.25 23.31609375 17.25 23.99609375 17.25 C23.99609375 17.91 23.99609375 18.57 23.99609375 19.25 C19.37609375 19.25 14.75609375 19.25 9.99609375 19.25 C9.99609375 17.93 9.99609375 16.61 9.99609375 15.25 C9.00609375 14.92 8.01609375 14.59 6.99609375 14.25 C5.62985701 11.51752652 5.86766775 9.26801098 5.99609375 6.25 C6.32609375 5.92 6.65609375 5.59 6.99609375 5.25 C6.33609375 4.92 5.67609375 4.59 4.99609375 4.25 C4.66609375 5.9 4.33609375 7.55 3.99609375 9.25 C3.33609375 9.25 2.67609375 9.25 1.99609375 9.25 C2.32609375 7.93 2.65609375 6.61 2.99609375 5.25 C2.33609375 5.25 1.67609375 5.25 0.99609375 5.25 C0.99609375 6.24 0.99609375 7.23 0.99609375 8.25 C0.99609375 8.91 0.99609375 9.57 0.99609375 10.25 C0.00609375 10.25 -0.98390625 10.25 -2.00390625 10.25 C-2.33390625 11.24 -2.66390625 12.23 -3.00390625 13.25 C-2.34390625 13.25 -1.68390625 13.25 -1.00390625 13.25 C-1.66390625 15.89 -2.32390625 18.53 -3.00390625 21.25 C-3.33390625 20.59 -3.66390625 19.93 -4.00390625 19.25 C-4.54917969 19.45496094 -5.09445313 19.65992187 -5.65625 19.87109375 C-13.31218103 22.60628962 -20.24158061 24.63357784 -28.00390625 21.25 C-27.67390625 19.93 -27.34390625 18.61 -27.00390625 17.25 C-26.34390625 17.25 -25.68390625 17.25 -25.00390625 17.25 C-24.67390625 17.91 -24.34390625 18.57 -24.00390625 19.25 C-24.00390625 18.59 -24.00390625 17.93 -24.00390625 17.25 C-24.66390625 16.59 -25.32390625 15.93 -26.00390625 15.25 C-23.11901805 8.75900154 -20.44370343 6.7920252 -14.00390625 4.25 C-13.34390625 3.59 -12.68390625 2.93 -12.00390625 2.25 C-8.37890625 2.125 -8.37890625 2.125 -5.00390625 2.25 C-5.00390625 2.58 -5.00390625 2.91 -5.00390625 3.25 C-6.98390625 3.25 -8.96390625 3.25 -11.00390625 3.25 C-11.33390625 4.24 -11.66390625 5.23 -12.00390625 6.25 C-12.66390625 6.25 -13.32390625 6.25 -14.00390625 6.25 C-13.67390625 7.24 -13.34390625 8.23 -13.00390625 9.25 C-12.34390625 8.92 -11.68390625 8.59 -11.00390625 8.25 C-11.00390625 9.24 -11.00390625 10.23 -11.00390625 11.25 C-12.32390625 11.25 -13.64390625 11.25 -15.00390625 11.25 C-15.00390625 10.26 -15.00390625 9.27 -15.00390625 8.25 C-16.65390625 8.58 -18.30390625 8.91 -20.00390625 9.25 C-20.00390625 10.24 -20.00390625 11.23 -20.00390625 12.25 C-20.99390625 12.58 -21.98390625 12.91 -23.00390625 13.25 C-18.71390625 13.25 -14.42390625 13.25 -10.00390625 13.25 C-10.00390625 12.26 -10.00390625 11.27 -10.00390625 10.25 C-9.34390625 10.25 -8.68390625 10.25 -8.00390625 10.25 C-7.67390625 10.58 -7.34390625 10.91 -7.00390625 11.25 C-6.67390625 10.92 -6.34390625 10.59 -6.00390625 10.25 C-7.32390625 9.59 -8.64390625 8.93 -10.00390625 8.25 C-10.00390625 7.59 -10.00390625 6.93 -10.00390625 6.25 C-9.01390625 6.25 -8.02390625 6.25 -7.00390625 6.25 C-7.66390625 5.59 -8.32390625 4.93 -9.00390625 4.25 C-4.25390625 5.125 -4.25390625 5.125 -2.00390625 6.25 C-2.66390625 4.6 -3.32390625 2.95 -4.00390625 1.25 C-3.00390625 0.25 -3.00390625 0.25 0 0 Z " fill="#99341B" transform="translate(38.00390625,19.75)"/>
<path d="M0 0 C1.67835937 0.19916016 1.67835937 0.19916016 3.390625 0.40234375 C15.04373744 1.70867992 26.62718061 2.34201347 38.35253906 2.57006836 C52.90113909 2.93409273 52.90113909 2.93409273 59 7 C61.32387947 7.39387788 63.65793749 7.73486085 66 8 C64.54718935 13.32697239 60.91888622 16.36402802 57 20 C50.73092537 18.03568995 45.0429716 15.73884091 39.3203125 12.46875 C35.56642494 10.8082068 32.10040413 10.33617366 28.0625 10 C22.42543902 9.52801012 18.23501508 8.32867912 13 6 C9.73556342 5.23753261 9.73556342 5.23753261 6.5625 4.8125 C4.98662109 4.57466797 4.98662109 4.57466797 3.37890625 4.33203125 C2.59386719 4.22246094 1.80882812 4.11289062 1 4 C0.67 2.68 0.34 1.36 0 0 Z " fill="#91D5DD" transform="translate(13,55)"/>
<path d="M0 0 C1.60122368 5.89208452 -0.32002617 9.72077444 -3 15 C-4.7912235 17.87213423 -6.79135475 20.43839934 -9 23 C-9.50144531 23.60714844 -10.00289063 24.21429688 -10.51953125 24.83984375 C-15.99869685 30.9322493 -24.95171241 36.4841685 -33.26147461 37.19287109 C-51.05488723 37.73570424 -62.176157 36.25503634 -75.40625 23.9140625 C-82 16.5060241 -82 16.5060241 -82 12 C-80.68 12 -79.36 12 -78 12 C-76.54296875 13.7578125 -76.54296875 13.7578125 -75.1875 16.125 C-70.03340463 24.32528142 -62.52043831 29.85476853 -53.10766602 32.53979492 C-41.95029032 34.97598781 -30.89039011 33.82694762 -21.03515625 28.1328125 C-14.78790685 23.74285346 -8.4365803 18.48378235 -6 11 C-6.20211722 7.5640072 -7.95371522 5.6690671 -10 3 C-10 2.34 -10 1.68 -10 1 C-6.52674819 -0.1577506 -3.63932552 -0.06866652 0 0 Z " fill="#EE2D29" transform="translate(86,50)"/>
<path d="M0 0 C0.66 0.33 1.32 0.66 2 1 C1.01 2.485 1.01 2.485 0 4 C0.58333333 6.66666667 0.58333333 6.66666667 2 9 C2.99 9.33 3.98 9.66 5 10 C6.53794755 12.23002395 7.06897963 13.41367314 6.75 16.125 C6 18 6 18 4 20 C2.2675 20.6496875 2.2675 20.6496875 0.5 21.3125 C-3.15212025 22.64956988 -3.15212025 22.64956988 -4.4375 25.6875 C-4.623125 26.450625 -4.80875 27.21375 -5 28 C-6.64666203 27.8864371 -8.29236082 27.75882619 -9.9375 27.625 C-10.85402344 27.55539063 -11.77054688 27.48578125 -12.71484375 27.4140625 C-13.46894531 27.27742188 -14.22304687 27.14078125 -15 27 C-15.33 26.34 -15.66 25.68 -16 25 C-17.28804306 28.86412917 -17.19077226 32.53516471 -17.1875 36.5625 C-17.18814453 37.36864746 -17.18878906 38.17479492 -17.18945312 39.00537109 C-17.13774263 44.84983192 -16.58948137 50.35166443 -15 56 C-19.49655086 50.33043588 -19.24359862 45.4149132 -19.3125 38.4375 C-19.34150391 37.48552734 -19.37050781 36.53355469 -19.40039062 35.55273438 C-19.51831362 22.22743602 -13.0777432 12.33653851 -4 3 C-2.688028 1.97213461 -1.3600408 0.96336223 0 0 Z " fill="#EFE73E" transform="translate(19,6)"/>
<path d="M0 0 C1.4540625 0.0309375 1.4540625 0.0309375 2.9375 0.0625 C2.2775 1.3825 1.6175 2.7025 0.9375 4.0625 C1.5975 4.3925 2.2575 4.7225 2.9375 5.0625 C3.5625 8.125 3.5625 8.125 3.9375 11.0625 C4.5975 11.0625 5.2575 11.0625 5.9375 11.0625 C8.9375 15.44711538 8.9375 15.44711538 8.9375 18.0625 C6.6275 18.3925 4.3175 18.7225 1.9375 19.0625 C2.2675 20.7125 2.5975 22.3625 2.9375 24.0625 C2.31875 23.85625 1.7 23.65 1.0625 23.4375 C0.36125 23.31375 -0.34 23.19 -1.0625 23.0625 C-1.7225 23.7225 -2.3825 24.3825 -3.0625 25.0625 C-3.7225 24.7325 -4.3825 24.4025 -5.0625 24.0625 C-5.0625 24.7225 -5.0625 25.3825 -5.0625 26.0625 C-3.0825 26.3925 -1.1025 26.7225 0.9375 27.0625 C0.2775 27.7225 -0.3825 28.3825 -1.0625 29.0625 C-0.7325 29.7225 -0.4025 30.3825 -0.0625 31.0625 C-1.0525 31.3925 -2.0425 31.7225 -3.0625 32.0625 C-3.0625 30.7425 -3.0625 29.4225 -3.0625 28.0625 C-3.7225 28.0625 -4.3825 28.0625 -5.0625 28.0625 C-5.0625 29.0525 -5.0625 30.0425 -5.0625 31.0625 C-9.67323111 32.35926812 -13.40090089 31.77359139 -18.0625 31.0625 C-17.7325 30.4025 -17.4025 29.7425 -17.0625 29.0625 C-16.4025 29.3925 -15.7425 29.7225 -15.0625 30.0625 C-15.0625 29.0725 -15.0625 28.0825 -15.0625 27.0625 C-13.4125 26.7325 -11.7625 26.4025 -10.0625 26.0625 C-10.0625 27.0525 -10.0625 28.0425 -10.0625 29.0625 C-8.7425 29.0625 -7.4225 29.0625 -6.0625 29.0625 C-6.3925 28.4025 -6.7225 27.7425 -7.0625 27.0625 C-7.7225 27.3925 -8.3825 27.7225 -9.0625 28.0625 C-9.0625 24.0625 -9.0625 24.0625 -7.5625 22.3125 C-7.0675 21.9 -6.5725 21.4875 -6.0625 21.0625 C-8.15394671 17.24020084 -9.89596756 14.07070582 -13.0625 11.0625 C-13.0625 10.4025 -13.0625 9.7425 -13.0625 9.0625 C-13.7225 8.7325 -14.3825 8.4025 -15.0625 8.0625 C-14.0625 5.6875 -14.0625 5.6875 -12.0625 3.0625 C-9.41369007 2.05190987 -6.86462641 1.60484705 -4.0625 1.0625 C-3.0625 0.0625 -3.0625 0.0625 0 0 Z " fill="#FB0804" transform="translate(33.0625,1.9375)"/>
<path d="M0 0 C3.12498063 -0.02895976 6.2499269 -0.04678483 9.375 -0.0625 C10.70917969 -0.07506836 10.70917969 -0.07506836 12.0703125 -0.08789062 C13.34648438 -0.09272461 13.34648438 -0.09272461 14.6484375 -0.09765625 C15.43395996 -0.10289307 16.21948242 -0.10812988 17.02880859 -0.11352539 C19 0 19 0 21 1 C21.41064453 3.04125977 21.41064453 3.04125977 21.6328125 5.69140625 C21.75849609 7.10776367 21.75849609 7.10776367 21.88671875 8.55273438 C21.96535156 9.54595703 22.04398438 10.53917969 22.125 11.5625 C22.21136719 12.55958984 22.29773438 13.55667969 22.38671875 14.58398438 C22.59956793 17.05539988 22.80359321 19.52723225 23 22 C21.39426511 21.68494718 19.78885877 21.3682195 18.18359375 21.05078125 C17.28954834 20.87458252 16.39550293 20.69838379 15.47436523 20.5168457 C11.24218855 19.63282814 8.82054773 19.10349522 6.1875 15.5625 C5 13 5 13 5 10 C4.34 10 3.68 10 3 10 C2.67 8.02 2.34 6.04 2 4 C1.01 3.67 0.02 3.34 -1 3 C-0.67 2.01 -0.34 1.02 0 0 Z " fill="#F0E53D" transform="translate(34,3)"/>
<path d="M0 0 C3.8078835 1.80201767 6.37485675 3.62481582 9 7 C9.0625 10.5625 9.0625 10.5625 8 14 C6.68945377 15.35573748 5.35251497 16.68612831 4 18 C2.85845052 20.25425114 1.88422339 22.53989888 0.9296875 24.87890625 C0 27 0 27 -2 30 C-3.32 30 -4.64 30 -6 30 C-6.04254356 28.00045254 -6.04080783 25.99958364 -6 24 C-5.67 23.67 -5.34 23.34 -5 23 C-4.66905758 21.59199041 -4.38656244 20.17253259 -4.125 18.75 C-2.92158642 12.45942901 -1.46564054 6.23385775 0 0 Z " fill="#F1E33D" transform="translate(69,13)"/>
<path d="M0 0 C0.77601562 0.09925781 1.55203125 0.19851562 2.3515625 0.30078125 C4.375 0.6875 4.375 0.6875 6.375 1.6875 C6.045 3.0075 5.715 4.3275 5.375 5.6875 C5.99375 5.48125 6.6125 5.275 7.25 5.0625 C7.95125 4.93875 8.6525 4.815 9.375 4.6875 C10.035 5.3475 10.695 6.0075 11.375 6.6875 C11 9.3125 11 9.3125 10.375 11.6875 C10.25125 11.048125 10.1275 10.40875 10 9.75 C9.79375 9.069375 9.5875 8.38875 9.375 7.6875 C8.715 7.3575 8.055 7.0275 7.375 6.6875 C7.705 7.6775 8.035 8.6675 8.375 9.6875 C8.045 10.6775 7.715 11.6675 7.375 12.6875 C8.035 12.6875 8.695 12.6875 9.375 12.6875 C9.375 13.3475 9.375 14.0075 9.375 14.6875 C4.755 14.6875 0.135 14.6875 -4.625 14.6875 C-4.625 13.3675 -4.625 12.0475 -4.625 10.6875 C-5.615 10.3575 -6.605 10.0275 -7.625 9.6875 C-8.97939668 6.97870665 -8.69001451 4.67816732 -8.625 1.6875 C-5.50156536 -0.17372475 -3.5866974 -0.4978192 0 0 Z " fill="#7F4121" transform="translate(52.625,24.3125)"/>
<path d="M0 0 C0.66 0.33 1.32 0.66 2 1 C1.01 2.485 1.01 2.485 0 4 C0.33 4.66 0.66 5.32 1 6 C0.29875 6.33 -0.4025 6.66 -1.125 7 C-7.77403 11.62541217 -11.09977349 18.63001263 -14 26 C-13.34 26.33 -12.68 26.66 -12 27 C-12.99 27 -13.98 27 -15 27 C-15.33 26.34 -15.66 25.68 -16 25 C-17.28804306 28.86412917 -17.19077226 32.53516471 -17.1875 36.5625 C-17.18814453 37.36864746 -17.18878906 38.17479492 -17.18945312 39.00537109 C-17.13774263 44.84983192 -16.58948137 50.35166443 -15 56 C-19.49655086 50.33043588 -19.24359862 45.4149132 -19.3125 38.4375 C-19.34150391 37.48552734 -19.37050781 36.53355469 -19.40039062 35.55273438 C-19.51831362 22.22743602 -13.0777432 12.33653851 -4 3 C-2.688028 1.97213461 -1.3600408 0.96336223 0 0 Z " fill="#FE807A" transform="translate(19,6)"/>
<path d="M0 0 C1 1 1 1 1.09765625 3.28515625 C1.08605469 4.20167969 1.07445313 5.11820313 1.0625 6.0625 C1.05347656 6.98160156 1.04445313 7.90070312 1.03515625 8.84765625 C1.02355469 9.55792969 1.01195313 10.26820312 1 11 C-2.28519475 12.09506492 -4.73663415 12.09960608 -8.1875 12.0625 C-9.81751953 12.04896484 -9.81751953 12.04896484 -11.48046875 12.03515625 C-12.31191406 12.02355469 -13.14335938 12.01195312 -14 12 C-14 8 -14 8 -12.20703125 5.859375 C-11.41683594 5.16328125 -10.62664062 4.4671875 -9.8125 3.75 C-9.03519531 3.04359375 -8.25789063 2.3371875 -7.45703125 1.609375 C-4.6681954 -0.21733465 -3.26738193 -0.42887915 0 0 Z " fill="#F1E73E" transform="translate(84,36)"/>
<path d="M0 0 C4.60399932 0.29231742 7.70689541 1.4686928 11.9375 3.25 C10.6175 4.24 9.2975 5.23 7.9375 6.25 C6.9475 5.59 5.9575 4.93 4.9375 4.25 C4.6075 5.9 4.2775 7.55 3.9375 9.25 C3.2775 9.25 2.6175 9.25 1.9375 9.25 C2.2675 7.93 2.5975 6.61 2.9375 5.25 C2.2775 5.25 1.6175 5.25 0.9375 5.25 C0.9375 6.24 0.9375 7.23 0.9375 8.25 C0.9375 8.91 0.9375 9.57 0.9375 10.25 C-0.0525 10.25 -1.0425 10.25 -2.0625 10.25 C-3.3825 12.56 -4.7025 14.87 -6.0625 17.25 C-8.3725 16.26 -10.6825 15.27 -13.0625 14.25 C-12.0725 13.92 -11.0825 13.59 -10.0625 13.25 C-10.0625 12.26 -10.0625 11.27 -10.0625 10.25 C-9.4025 10.25 -8.7425 10.25 -8.0625 10.25 C-7.7325 10.58 -7.4025 10.91 -7.0625 11.25 C-6.7325 10.92 -6.4025 10.59 -6.0625 10.25 C-7.3825 9.59 -8.7025 8.93 -10.0625 8.25 C-10.0625 7.59 -10.0625 6.93 -10.0625 6.25 C-9.0725 6.25 -8.0825 6.25 -7.0625 6.25 C-7.7225 5.59 -8.3825 4.93 -9.0625 4.25 C-4.3125 5.125 -4.3125 5.125 -2.0625 6.25 C-2.7225 4.6 -3.3825 2.95 -4.0625 1.25 C-3.0625 0.25 -3.0625 0.25 0 0 Z " fill="#55582C" transform="translate(38.0625,19.75)"/>
<path d="M0 0 C1.32 0 2.64 0 4 0 C5.45703125 1.7578125 5.45703125 1.7578125 6.8125 4.125 C10.51050245 10.04366221 14.72407575 13.8671485 20.875 17.125 C24 19 24 19 24.9375 21.25 C24.958125 21.8275 24.97875 22.405 25 23 C16.43795141 21.99270017 9.79002994 14.88917429 4 9 C1.95121272 6.22995598 0 3.5579767 0 0 Z " fill="#EA100A" transform="translate(4,62)"/>
<path d="M0 0 C1.32 0.66 2.64 1.32 4 2 C4 2.66 4 3.32 4 4 C3.34 4 2.68 4 2 4 C2.33 6.64 2.66 9.28 3 12 C4.32 12.33 5.64 12.66 7 13 C6.01 14.485 6.01 14.485 5 16 C1.375 16.1875 1.375 16.1875 -2 16 C-2 18.97 -2 21.94 -2 25 C-2.66 25 -3.32 25 -4 25 C-5.09506492 21.71480525 -5.09960608 19.26336585 -5.0625 15.8125 C-5.05347656 14.72582031 -5.04445312 13.63914062 -5.03515625 12.51953125 C-5.02355469 11.68808594 -5.01195312 10.85664062 -5 10 C-5.66 9.67 -6.32 9.34 -7 9 C-6.67 8.01 -6.34 7.02 -6 6 C-6 6.66 -6 7.32 -6 8 C-5.01 8 -4.02 8 -3 8 C-3 7.34 -3 6.68 -3 6 C-3.66 5.67 -4.32 5.34 -5 5 C-4.34 3.68 -3.68 2.36 -3 1 C-3 1.66 -3 2.32 -3 3 C-2.34 3 -1.68 3 -1 3 C-1.33 4.32 -1.66 5.64 -2 7 C0.28728734 5.16116119 0.28728734 5.16116119 0.125 2.375 C0.08375 1.59125 0.0425 0.8075 0 0 Z " fill="#C30F0D" transform="translate(42,22)"/>
<path d="M0 0 C0.99 0.33 1.98 0.66 3 1 C3 5.95 3 10.9 3 16 C3.66 16 4.32 16 5 16 C4.67 12.7 4.34 9.4 4 6 C5.32 6.33 6.64 6.66 8 7 C7.67 7.33 7.34 7.66 7 8 C6.76924918 9.34747084 6.58846937 10.70377565 6.4375 12.0625 C6.293125 13.361875 6.14875 14.66125 6 16 C6.9075 15.938125 7.815 15.87625 8.75 15.8125 C12.28982642 16.01672076 13.44931155 16.64551835 16 19 C14.58376784 19.05447047 13.16691809 19.09300508 11.75 19.125 C10.56664062 19.15980469 10.56664062 19.15980469 9.359375 19.1953125 C6.79268059 18.9828378 5.2083933 18.28654105 3 17 C3 17.66 3 18.32 3 19 C-1.95 19.495 -1.95 19.495 -7 20 C-7 19.34 -7 18.68 -7 18 C-6.195625 17.79375 -5.39125 17.5875 -4.5625 17.375 C-3.2940625 16.694375 -3.2940625 16.694375 -2 16 C-1.22573891 13.19235272 -1.22573891 13.19235272 -1 10 C-0.14424279 7.21878906 0.69909514 4.60180972 2 2 C1.34 2 0.68 2 0 2 C0 1.34 0 0.68 0 0 Z " fill="#941515" transform="translate(35,31)"/>
<path d="M0 0 C1.670625 0.061875 1.670625 0.061875 3.375 0.125 C3.375 0.455 3.375 0.785 3.375 1.125 C1.395 1.125 -0.585 1.125 -2.625 1.125 C-2.955 2.115 -3.285 3.105 -3.625 4.125 C-4.285 4.125 -4.945 4.125 -5.625 4.125 C-5.295 5.115 -4.965 6.105 -4.625 7.125 C-3.965 6.795 -3.305 6.465 -2.625 6.125 C-2.625 7.115 -2.625 8.105 -2.625 9.125 C-3.945 9.125 -5.265 9.125 -6.625 9.125 C-6.625 8.135 -6.625 7.145 -6.625 6.125 C-8.275 6.455 -9.925 6.785 -11.625 7.125 C-11.625 8.115 -11.625 9.105 -11.625 10.125 C-12.615 10.455 -13.605 10.785 -14.625 11.125 C-13.34625 11.104375 -12.0675 11.08375 -10.75 11.0625 C-6.875 11 -6.875 11 -4.625 12.125 C-4.625 13.115 -4.625 14.105 -4.625 15.125 C-5.4603125 14.63 -5.4603125 14.63 -6.3125 14.125 C-8.92784522 12.9940399 -10.8056646 12.96837026 -13.625 13.125 C-13.625 13.785 -13.625 14.445 -13.625 15.125 C-12.965 15.455 -12.305 15.785 -11.625 16.125 C-12.285 16.125 -12.945 16.125 -13.625 16.125 C-13.625 17.115 -13.625 18.105 -13.625 19.125 C-12.965 19.125 -12.305 19.125 -11.625 19.125 C-11.625 19.785 -11.625 20.445 -11.625 21.125 C-13.935 20.795 -16.245 20.465 -18.625 20.125 C-18.955 18.805 -19.285 17.485 -19.625 16.125 C-18.635 15.795 -17.645 15.465 -16.625 15.125 C-16.295 15.785 -15.965 16.445 -15.625 17.125 C-15.625 16.465 -15.625 15.805 -15.625 15.125 C-16.285 14.465 -16.945 13.805 -17.625 13.125 C-14.7401118 6.63400154 -12.06479718 4.6670252 -5.625 2.125 C-3.625 0.125 -3.625 0.125 0 0 Z " fill="#466331" transform="translate(29.625,21.875)"/>
<path d="M0 0 C0.94552734 -0.00708984 1.89105469 -0.01417969 2.86523438 -0.02148438 C8.60457358 0.03050964 12.71441939 0.77916474 17.8125 3.4375 C14.8125 4.4375 14.8125 4.4375 11.8125 3.4375 C11.4825 4.4275 11.1525 5.4175 10.8125 6.4375 C10.8125 5.7775 10.8125 5.1175 10.8125 4.4375 C6.70908886 4.21193498 2.60485012 4.00999962 -1.5 3.8125 C-2.66724609 3.74804688 -3.83449219 3.68359375 -5.03710938 3.6171875 C-6.71450195 3.53984375 -6.71450195 3.53984375 -8.42578125 3.4609375 C-9.45743408 3.40856934 -10.48908691 3.35620117 -11.55200195 3.30224609 C-14.42167664 3.22432646 -14.42167664 3.22432646 -17.1875 5.4375 C-19.375 5.0625 -19.375 5.0625 -21.1875 4.4375 C-13.97700471 0.98285938 -7.96066524 -0.17031099 0 0 Z " fill="#FD463E" transform="translate(44.1875,-0.4375)"/>
<path d="M0 0 C0 0.99 0 1.98 0 3 C-0.61875 2.79375 -1.2375 2.5875 -1.875 2.375 C-2.57625 2.25125 -3.2775 2.1275 -4 2 C-4.66 2.66 -5.32 3.32 -6 4 C-6.66 3.67 -7.32 3.34 -8 3 C-8 3.66 -8 4.32 -8 5 C-5.03 5.495 -5.03 5.495 -2 6 C-2.66 6.66 -3.32 7.32 -4 8 C-3.67 8.66 -3.34 9.32 -3 10 C-3.99 10.33 -4.98 10.66 -6 11 C-6 9.68 -6 8.36 -6 7 C-6.66 7 -7.32 7 -8 7 C-8 7.99 -8 8.98 -8 10 C-12.61073111 11.29676812 -16.33840089 10.71109139 -21 10 C-20.67 9.34 -20.34 8.68 -20 8 C-19.34 8.33 -18.68 8.66 -18 9 C-18 8.01 -18 7.02 -18 6 C-16.35 5.67 -14.7 5.34 -13 5 C-13 5.99 -13 6.98 -13 8 C-11.68 8 -10.36 8 -9 8 C-9.33 7.34 -9.66 6.68 -10 6 C-10.99 6.495 -10.99 6.495 -12 7 C-12 3 -12 3 -10.875 1.3125 C-7.3324099 -1.16731307 -4.01826405 -1.33942135 0 0 Z " fill="#C61C0E" transform="translate(36,23)"/>
<path d="M0 0 C1.48603696 4.32301662 0.53414443 7.19697948 -0.91796875 11.328125 C-2 13 -2 13 -4.11328125 13.734375 C-4.73589844 13.82203125 -5.35851562 13.9096875 -6 14 C-5.9175 13.113125 -5.835 12.22625 -5.75 11.3125 C-6.0537589 7.28769461 -7.37232494 5.95613444 -10 3 C-10 2.34 -10 1.68 -10 1 C-6.52674819 -0.1577506 -3.63932552 -0.06866652 0 0 Z " fill="#F2201D" transform="translate(86,50)"/>
<path d="M0 0 C4.29 0 8.58 0 13 0 C10.77883615 4.44232769 9.13565772 5.46796466 5 8 C4.01 8.66 3.02 9.32 2 10 C-0.4294516 6.3558226 -0.16179575 4.28758728 0 0 Z " fill="#18753B" transform="translate(4,49)"/>
<path d="M0 0 C1.32 0 2.64 0 4 0 C1.85554429 7.62473143 -5.54550639 14.65186794 -12 19 C-14.20703125 19.66015625 -14.20703125 19.66015625 -16 20 C-15.21625 19.2575 -14.4325 18.515 -13.625 17.75 C-11.02633373 15.30873375 -11.02633373 15.30873375 -10.0546875 13.046875 C-8.49557289 10.02103775 -6.12316638 8.08091781 -3.65625 5.78125 C-1.95804683 3.95488055 -0.99683672 2.27278771 0 0 Z " fill="#F23D3D" transform="translate(79,63)"/>
<path d="M0 0 C6.75 0.875 6.75 0.875 9 2 C8.67 3.32 8.34 4.64 8 6 C8.61875 5.79375 9.2375 5.5875 9.875 5.375 C10.57625 5.25125 11.2775 5.1275 12 5 C12.66 5.66 13.32 6.32 14 7 C13.625 9.625 13.625 9.625 13 12 C12.87625 11.360625 12.7525 10.72125 12.625 10.0625 C12.41875 9.381875 12.2125 8.70125 12 8 C11.34 7.67 10.68 7.34 10 7 C10.33 7.99 10.66 8.98 11 10 C10.67 10.99 10.34 11.98 10 13 C10.66 13 11.32 13 12 13 C12 13.66 12 14.32 12 15 C9.69 15 7.38 15 5 15 C6.32 14.67 7.64 14.34 9 14 C9 13.34 9 12.68 9 12 C8.34 11.67 7.68 11.34 7 11 C7 10.01 7 9.02 7 8 C6.34 7.34 5.68 6.68 5 6 C4.67 6.66 4.34 7.32 4 8 C4 5 4 5 5 4 C4.34 3.67 3.68 3.34 3 3 C3 2.34 3 1.68 3 1 C2.34 1 1.68 1 1 1 C0.67 1.99 0.34 2.98 0 4 C-0.33 3.34 -0.66 2.68 -1 2 C-0.67 1.34 -0.34 0.68 0 0 Z " fill="#54582C" transform="translate(50,24)"/>
<path d="M0 0 C4.99638067 0.28550747 7.51205645 2.67428639 11 6 C11 6.66 11 7.32 11 8 C2.42857143 8.14285714 2.42857143 8.14285714 -1 7 C-1.04254356 5.00045254 -1.04080783 2.99958364 -1 1 C-0.67 0.67 -0.34 0.34 0 0 Z " fill="#EEE73E" transform="translate(42,38)"/>
<path d="M0 0 C0.66 0.33 1.32 0.66 2 1 C2 5.62 2 10.24 2 15 C1.01 15.33 0.02 15.66 -1 16 C-1 15.34 -1 14.68 -1 14 C-2.6396875 14.061875 -2.6396875 14.061875 -4.3125 14.125 C-8 14 -8 14 -11 12 C-5.555 11.505 -5.555 11.505 0 11 C0 7.37 0 3.74 0 0 Z " fill="#FA0603" transform="translate(85,36)"/>
<path d="M0 0 C1.32 0 2.64 0 4 0 C8 8 8 8 9.03125 10.125 C10.14269856 12.27619076 11.50643606 14.09910045 13 16 C7.0629956 13.43688797 2.98476196 8.3976813 0.5625 2.5 C0.376875 1.675 0.19125 0.85 0 0 Z " fill="#F66F6D" transform="translate(4,62)"/>
<path d="M0 0 C0.66 2.31 1.32 4.62 2 7 C2.66 7 3.32 7 4 7 C4.433125 6.566875 4.86625 6.13375 5.3125 5.6875 C7.35859554 3.64140446 9.42936529 2.31827421 12 1 C12.66 1.33 13.32 1.66 14 2 C11.42799744 4.05760205 8.85640063 6.11096315 6.25 8.125 C3.93200395 9.80197641 3.93200395 9.80197641 3 12 C2.01 12 1.02 12 0 12 C-0.99 8.37 -1.98 4.74 -3 1 C-1 0 -1 0 0 0 Z " fill="#C1291C" transform="translate(4,50)"/>
<path d="M0 0 C0.57492188 0.16242187 1.14984375 0.32484375 1.7421875 0.4921875 C8.62778824 2.04085203 16.07583598 0.80950561 23 0 C19.29791405 3.70208595 14.99183612 4.1445444 9.9375 4.25 C6.22202736 4.18275163 3.33479487 3.77855726 0 2 C0 1.34 0 0.68 0 0 Z " fill="#7DC4C1" transform="translate(38,48)"/>
<path d="M0 0 C7.92 0.66 15.84 1.32 24 2 C24 2.33 24 2.66 24 3 C21.31300008 3.22366479 18.62656203 3.42927009 15.9375 3.625 C14.80924805 3.72167969 14.80924805 3.72167969 13.65820312 3.8203125 C8.60470937 4.17033804 4.78976864 3.66655961 0 2 C0 1.34 0 0.68 0 0 Z " fill="#326233" transform="translate(41,45)"/>
<path d="M0 0 C1.98 0.495 1.98 0.495 4 1 C3.67 1.33 3.34 1.66 3 2 C2.76924918 3.34747084 2.58846937 4.70377565 2.4375 6.0625 C2.2209375 8.0115625 2.2209375 8.0115625 2 10 C2.9075 9.938125 3.815 9.87625 4.75 9.8125 C8.28982642 10.01672076 9.44931155 10.64551835 12 13 C3.80743982 13.4726477 3.80743982 13.4726477 0.4375 11.5 C-0.036875 11.005 -0.51125 10.51 -1 10 C-0.34 10 0.32 10 1 10 C0.67 6.7 0.34 3.4 0 0 Z " fill="#773729" transform="translate(39,37)"/>
<path d="M0 0 C0 0.99 0 1.98 0 3 C-0.61875 2.79375 -1.2375 2.5875 -1.875 2.375 C-2.57625 2.25125 -3.2775 2.1275 -4 2 C-4.66 2.66 -5.32 3.32 -6 4 C-6.66 3.67 -7.32 3.34 -8 3 C-8.33 3.99 -8.66 4.98 -9 6 C-9.99 6.33 -10.98 6.66 -12 7 C-12 3 -12 3 -10.875 1.3125 C-7.3324099 -1.16731307 -4.01826405 -1.33942135 0 0 Z " fill="#9C3119" transform="translate(36,23)"/>
<path d="M0 0 C-0.33 2.31 -0.66 4.62 -1 7 C-5.67692308 5.52307692 -5.67692308 5.52307692 -7.3125 2.875 C-7.539375 2.25625 -7.76625 1.6375 -8 1 C-5.07175348 0.02391783 -3.04386724 -0.08226668 0 0 Z " fill="#246F38" transform="translate(84,50)"/>
<path d="M0 0 C0.75 1.75 0.75 1.75 1 4 C-0.9375 6.25 -0.9375 6.25 -3 8 C-4.98 7.01 -6.96 6.02 -9 5 C-8.01 4.67 -7.02 4.34 -6 4 C-6 3.01 -6 2.02 -6 1 C-5.34 1 -4.68 1 -4 1 C-3.67 1.33 -3.34 1.66 -3 2 C-2.01 1.34 -1.02 0.68 0 0 Z " fill="#466631" transform="translate(34,29)"/>
<path d="M0 0 C0.66 0 1.32 0 2 0 C1.835 0.969375 1.67 1.93875 1.5 2.9375 C0.86603727 7.29487763 0.9103328 11.60630704 1 16 C0.34 16 -0.32 16 -1 16 C-2.132456 12.60263201 -1.94138856 10.42368246 -1.625 6.875 C-1.53476562 5.79992188 -1.44453125 4.72484375 -1.3515625 3.6171875 C-1 1 -1 1 0 0 Z " fill="#E30505" transform="translate(39,31)"/>
<path d="M0 0 C-0.33 0.99 -0.66 1.98 -1 3 C-1 2.34 -1 1.68 -1 1 C-1.59167969 1.20496094 -2.18335938 1.40992188 -2.79296875 1.62109375 C-6.83660816 2.9997571 -10.76855249 4.31750847 -15 5 C-15 4.01 -15 3.02 -15 2 C-10.13948404 -0.59227518 -5.34728867 -0.18689553 0 0 Z " fill="#566530" transform="translate(35,38)"/>
<path d="M0 0 C0.66 0 1.32 0 2 0 C2 0.66 2 1.32 2 2 C2.99 2.33 3.98 2.66 5 3 C4.67 3.66 4.34 4.32 4 5 C4.99 5.33 5.98 5.66 7 6 C6.01 7.485 6.01 7.485 5 9 C3.68 8.67 2.36 8.34 1 8 C0.67 8.66 0.34 9.32 0 10 C0 6.7 0 3.4 0 0 Z " fill="#CC180C" transform="translate(51,25)"/>
<path d="M0 0 C3.3 0 6.6 0 10 0 C9.67 0.66 9.34 1.32 9 2 C6.03 1.67 3.06 1.34 0 1 C0 0.67 0 0.34 0 0 Z M4 2 C5.65 2 7.3 2 9 2 C9.33 3.32 9.66 4.64 10 6 C7.69 5.34 5.38 4.68 3 4 C3.33 3.34 3.66 2.68 4 2 Z " fill="#83C9C9" transform="translate(23,57)"/>
<path d="M0 0 C0.66 0.33 1.32 0.66 2 1 C1.01 2.485 1.01 2.485 0 4 C0.33 4.66 0.66 5.32 1 6 C-0.093125 6.28875 -1.18625 6.5775 -2.3125 6.875 C-6.04013845 7.81893204 -6.04013845 7.81893204 -9 10 C-7.61811547 6.78956118 -6.07578097 4.95063635 -3.375 2.75 C-2.74335938 2.22921875 -2.11171875 1.7084375 -1.4609375 1.171875 C-0.73777344 0.59179688 -0.73777344 0.59179688 0 0 Z " fill="#FE817D" transform="translate(19,6)"/>
<path d="M0 0 C6.75 0.875 6.75 0.875 9 2 C9 2.66 9 3.32 9 4 C8.34 4 7.68 4 7 4 C7 4.66 7 5.32 7 6 C6.34 6 5.68 6 5 6 C4.67 6.66 4.34 7.32 4 8 C4 5 4 5 5 4 C4.34 3.67 3.68 3.34 3 3 C3 2.34 3 1.68 3 1 C2.34 1 1.68 1 1 1 C0.67 1.99 0.34 2.98 0 4 C-0.33 3.34 -0.66 2.68 -1 2 C-0.67 1.34 -0.34 0.68 0 0 Z " fill="#397537" transform="translate(50,24)"/>
<path d="M0 0 C2.375 0.25 2.375 0.25 3.375 1.25 C3.44705511 2.93608966 3.45886068 4.62500659 3.4375 6.3125 C3.42847656 7.23160156 3.41945313 8.15070312 3.41015625 9.09765625 C3.39855469 9.80792969 3.38695313 10.51820312 3.375 11.25 C2.385 10.92 1.395 10.59 0.375 10.25 C1.035 10.25 1.695 10.25 2.375 10.25 C2.045 7.61 1.715 4.97 1.375 2.25 C-0.935 2.58 -3.245 2.91 -5.625 3.25 C-3.7774876 0.91630013 -3.0311278 0.28867884 0 0 Z " fill="#F3B731" transform="translate(81.625,35.75)"/>
<path d="M0 0 C0.33 0 0.66 0 1 0 C1 1.65 1 3.3 1 5 C4.3 4.67 7.6 4.34 11 4 C11.33 4.99 11.66 5.98 12 7 C3.42857143 7.14285714 3.42857143 7.14285714 0 6 C0 4.02 0 2.04 0 0 Z " fill="#E6CC38" transform="translate(41,39)"/>
<path d="M0 0 C0.515625 0.309375 1.03125 0.61875 1.5625 0.9375 C4.66665423 2.29059287 7.65115007 2.61359424 11 3 C11.33 4.32 11.66 5.64 12 7 C7.48292068 6.4685789 4.61312423 4.70984317 1 2 C0.67 1.34 0.34 0.68 0 0 Z " fill="#FC8686" transform="translate(17,78)"/>
<path d="M0 0 C0.99 0 1.98 0 3 0 C2.34 1.65 1.68 3.3 1 5 C-1.31 5.33 -3.62 5.66 -6 6 C-5 3 -5 3 -3 1.875 C-2.34 1.58625 -1.68 1.2975 -1 1 C-0.67 0.67 -0.34 0.34 0 0 Z " fill="#C97124" transform="translate(34,33)"/>
<path d="M0 0 C0.66 0 1.32 0 2 0 C2 2.97 2 5.94 2 9 C0.02 8.34 -1.96 7.68 -4 7 C-3.01 6.67 -2.02 6.34 -1 6 C-1.33 5.01 -1.66 4.02 -2 3 C-1.34 3 -0.68 3 0 3 C0 2.01 0 1.02 0 0 Z " fill="#5D532A" transform="translate(50,27)"/>
<path d="M0 0 C0.66 0 1.32 0 2 0 C0.44499019 3.81684226 -2.03595495 6.19195732 -5 9 C-5 4.68381834 -2.86729652 3.07210341 0 0 Z " fill="#FD1107" transform="translate(14,12)"/>
<path d="M0 0 C0.66 0 1.32 0 2 0 C2.33 0.66 2.66 1.32 3 2 C6.02934491 2.65772428 6.02934491 2.65772428 9 3 C6.51889985 4.56217417 5.39141793 5.05728067 2.4375 4.625 C1.633125 4.41875 0.82875 4.2125 0 4 C-0.99 4 -1.98 4 -3 4 C-1.625 2 -1.625 2 0 0 Z " fill="#217E49" transform="translate(11,56)"/>
<path d="M0 0 C0.99 0.33 1.98 0.66 3 1 C3.33 0.67 3.66 0.34 4 0 C4.33 0 4.66 0 5 0 C5.1875 2.375 5.1875 2.375 5 5 C4.01 5.66 3.02 6.32 2 7 C1.34 6.67 0.68 6.34 0 6 C0 4.02 0 2.04 0 0 Z " fill="#CB2610" transform="translate(60,31)"/>
<path d="M0 0 C2.4375 0.8125 2.4375 0.8125 5 2 C6 5 6 5 5.0625 7.1875 C4.5365625 8.0846875 4.5365625 8.0846875 4 9 C3.34 9 2.68 9 2 9 C2.04125 8.071875 2.0825 7.14375 2.125 6.1875 C2.27136339 2.84190281 2.27136339 2.84190281 0 0 Z " fill="#D5170C" transform="translate(78,55)"/>
<path d="M0 0 C0 0.99 0 1.98 0 3 C-4.455 3.495 -4.455 3.495 -9 4 C-9 3.34 -9 2.68 -9 2 C-2.25 0 -2.25 0 0 0 Z " fill="#A41512" transform="translate(37,47)"/>
<path d="M0 0 C2.31 0 4.62 0 7 0 C6.67 1.32 6.34 2.64 6 4 C4.125 3.6875 4.125 3.6875 2 3 C1.34 2.01 0.68 1.02 0 0 Z " fill="#EBE43E" transform="translate(52,39)"/>
<path d="M0 0 C2.88437779 1.29299694 4.87219421 2.65941363 7 5 C6.67 5.99 6.34 6.98 6 8 C4.99403703 7.0479279 3.99538437 6.08812654 3 5.125 C2.443125 4.59132813 1.88625 4.05765625 1.3125 3.5078125 C0 2 0 2 0 0 Z " fill="#F50805" transform="translate(11,70)"/>
<path d="M0 0 C1.32 0.33 2.64 0.66 4 1 C3.67 2.32 3.34 3.64 3 5 C1.35 5 -0.3 5 -2 5 C-2 4.01 -2 3.02 -2 2 C-1.34 2.33 -0.68 2.66 0 3 C0 2.01 0 1.02 0 0 Z " fill="#AD2A15" transform="translate(25,34)"/>
<path d="M0 0 C7.75 -0.125 7.75 -0.125 10 1 C10 1.99 10 2.98 10 4 C9.46375 3.67 8.9275 3.34 8.375 3 C5.4608939 1.77300796 3.13132292 1.85766714 0 2 C0 1.34 0 0.68 0 0 Z " fill="#376734" transform="translate(15,33)"/>
<path d="M0 0 C0 0.33 0 0.66 0 1 C-1.98 1 -3.96 1 -6 1 C-6.33 1.99 -6.66 2.98 -7 4 C-9.31 4.33 -11.62 4.66 -14 5 C-13.401875 4.731875 -12.80375 4.46375 -12.1875 4.1875 C-9.95469417 3.15662561 -9.95469417 3.15662561 -8.6875 1.375 C-6.00207143 -0.81312698 -3.32772689 -0.1883619 0 0 Z " fill="#4C7B36" transform="translate(33,22)"/>
<path d="M0 0 C2.97 0.495 2.97 0.495 6 1 C5.67 1.99 5.34 2.98 5 4 C3.35 3.67 1.7 3.34 0 3 C0 2.01 0 1.02 0 0 Z " fill="#8BCFD4" transform="translate(13,55)"/>
<path d="M0 0 C2.97 0.495 2.97 0.495 6 1 C5.01 1.33 4.02 1.66 3 2 C3.66 3.32 4.32 4.64 5 6 C3.0625 5.25 3.0625 5.25 1 4 C0.25 1.875 0.25 1.875 0 0 Z " fill="#DC1108" transform="translate(73,49)"/>
<path d="M0 0 C0.33 0.99 0.66 1.98 1 3 C2.65 2.67 4.3 2.34 6 2 C5.34 3.32 4.68 4.64 4 6 C2.68 6 1.36 6 0 6 C0 4.02 0 2.04 0 0 Z " fill="#F3D439" transform="translate(63,37)"/>
<path d="M0 0 C0 0.99 0 1.98 0 3 C-2.97 2.67 -5.94 2.34 -9 2 C-9 1.34 -9 0.68 -9 0 C-3.375 -1.125 -3.375 -1.125 0 0 Z " fill="#B32614" transform="translate(36,23)"/>
</svg>
